<?xml version="1.0" standalone="no"?>
<!DOCTYPE svg PUBLIC "-//W3C//DTD SVG 20010904//EN"
 "http://www.w3.org/TR/2001/REC-SVG-20010904/DTD/svg10.dtd">
<svg version="1.0" xmlns="http://www.w3.org/2000/svg"
 width="512.000000pt" height="512.000000pt" viewBox="0 0 512.000000 512.000000"
 preserveAspectRatio="xMidYMid meet">

<g transform="translate(0.000000,512.000000) scale(0.100000,-0.100000)"
fill="#000000" stroke="none">
<path d="M1039 5026 c-50 -17 -88 -49 -122 -99 l-28 -42 -252 -5 c-233 -5
-256 -7 -310 -29 -81 -32 -168 -115 -210 -200 l-32 -66 -3 -1839 c-2 -1659 -1
-1845 14 -1895 40 -142 156 -249 302 -280 37 -8 354 -11 1067 -11 l1015 0 0
-27 c1 -76 91 -181 175 -202 24 -6 68 -11 98 -11 l53 0 24 -51 c71 -158 269
-231 422 -156 68 33 143 112 159 168 l12 39 332 0 331 0 24 -51 c71 -158 269
-231 422 -156 67 33 143 112 159 167 l11 38 82 4 c117 7 183 46 232 138 18 32
19 68 22 480 l3 446 -141 187 -140 187 -180 0 -180 0 0 925 0 925 24 0 c38 0
155 39 226 76 137 70 239 174 310 319 141 285 88 601 -139 825 -135 134 -281
198 -471 207 -367 18 -667 -228 -745 -609 l-5 -28 -159 0 -158 0 -6 83 c-9
149 -76 268 -187 335 -95 57 -128 62 -391 62 l-237 0 -12 30 c-17 42 -90 104
-138 118 -59 18 -1223 16 -1273 -2z m1236 -152 c37 -15 45 -56 45 -239 l0
-177 -29 -29 -30 -29 -591 2 -592 3 -19 24 c-17 21 -19 41 -19 213 0 187 0
189 25 213 l24 25 585 0 c321 0 592 -3 601 -6z m2157 -5 c191 -41 362 -195
418 -378 64 -207 14 -407 -140 -561 -195 -196 -474 -223 -704 -69 -292 195
-331 604 -81 854 134 134 326 192 507 154z m-3552 -229 l0 -80 -184 0 c-174 0
-185 -1 -217 -23 -18 -12 -44 -38 -56 -56 l-23 -34 0 -1727 0 -1727 22 -33
c13 -18 36 -43 51 -54 28 -21 32 -21 1018 -24 l989 -2 0 -80 0 -80 -1032 2
-1033 3 -40 22 c-22 12 -54 36 -72 55 -68 71 -63 -82 -63 1918 0 1603 2 1815
15 1847 25 60 61 99 117 127 51 26 54 26 280 26 l228 0 0 -80z m2071 68 c51
-15 114 -69 142 -122 l22 -41 3 -1232 2 -1233 -80 0 -80 0 0 1173 0 1173 -22
44 c-42 81 -53 85 -269 88 l-189 3 0 80 0 79 216 0 c136 0 231 -4 255 -12z
m-2051 -321 c0 -23 70 -97 114 -120 l41 -22 626 0 626 0 49 30 c29 18 61 50
79 77 l30 47 168 0 167 1 0 -1160 0 -1160 -160 0 -160 0 0 -520 0 -520 -960 0
-960 0 0 1680 0 1680 170 0 c134 0 170 -3 170 -13z m2704 -159 c2 -7 10 -44
20 -83 61 -259 289 -478 550 -527 l66 -13 0 -922 0 -923 -80 0 -80 0 0 160 0
160 -400 0 -400 0 0 1080 0 1080 160 0 c120 0 161 -3 164 -12z m-644 -2468 l0
-160 320 0 320 0 0 160 0 160 160 0 160 0 0 -560 0 -560 -640 0 -640 0 0 560
0 560 160 0 160 0 0 -160z m480 80 l0 -80 -160 0 -160 0 0 80 0 80 160 0 160
0 0 -80z m1340 -373 l100 -134 0 -266 0 -267 -400 0 -400 0 0 400 0 400 300 0
300 0 100 -133z m-1914 -873 c-19 -25 -40 -61 -47 -81 l-11 -35 -65 4 c-83 5
-103 25 -103 104 l0 54 130 0 131 0 -35 -46z m1280 0 c-19 -25 -40 -61 -46
-80 l-12 -34 -328 0 -329 0 -19 43 c-11 24 -34 60 -52 80 l-32 37 426 0 427 0
-35 -46z m734 -5 c0 -43 -5 -55 -29 -80 -25 -25 -37 -29 -85 -29 l-55 0 -19
43 c-11 24 -34 60 -52 80 l-32 37 136 0 136 0 0 -51z m-1672 -55 c41 -30 74
-101 68 -147 -14 -118 -155 -186 -246 -119 -98 73 -93 200 10 270 29 20 44 23
88 20 31 -3 64 -13 80 -24z m1280 0 c41 -30 74 -101 68 -147 -14 -118 -155
-186 -246 -119 -98 73 -93 200 10 270 29 20 44 23 88 20 31 -3 64 -13 80 -24z"/>
<path d="M4368 4403 l-208 -208 -53 53 -53 52 -57 -58 -57 -57 108 -108 107
-107 268 268 267 267 -53 53 c-29 28 -55 52 -57 52 -3 0 -98 -93 -212 -207z"/>
<path d="M1094 3863 c-109 -147 -204 -273 -211 -282 -10 -14 -18 -10 -60 31
l-49 48 -57 -58 -57 -57 113 -113 114 -113 267 357 268 357 -23 18 c-13 10
-42 32 -65 48 l-40 30 -200 -266z"/>
<path d="M1600 4000 l0 -80 520 0 520 0 0 80 0 80 -520 0 -520 0 0 -80z"/>
<path d="M1600 3680 l0 -80 360 0 360 0 0 80 0 80 -360 0 -360 0 0 -80z"/>
<path d="M2480 3680 l0 -80 80 0 80 0 0 80 0 80 -80 0 -80 0 0 -80z"/>
<path d="M1600 3360 l0 -80 520 0 520 0 0 80 0 80 -520 0 -520 0 0 -80z"/>
<path d="M1094 2903 c-109 -147 -204 -273 -211 -282 -10 -14 -18 -10 -60 31
l-49 48 -57 -58 -57 -57 113 -113 114 -113 267 357 268 357 -23 18 c-13 10
-42 32 -65 48 l-40 30 -200 -266z"/>
<path d="M1600 3040 l0 -80 520 0 520 0 0 80 0 80 -520 0 -520 0 0 -80z"/>
<path d="M1600 2720 l0 -80 360 0 360 0 0 80 0 80 -360 0 -360 0 0 -80z"/>
<path d="M2480 2720 l0 -80 80 0 80 0 0 80 0 80 -80 0 -80 0 0 -80z"/>
<path d="M1600 2400 l0 -80 520 0 520 0 0 80 0 80 -520 0 -520 0 0 -80z"/>
<path d="M720 1600 l0 -400 480 0 480 0 0 400 0 400 -480 0 -480 0 0 -400z
m800 0 l0 -240 -320 0 -320 0 0 240 0 240 320 0 320 0 0 -240z"/>
<path d="M1840 1920 l0 -80 240 0 240 0 0 80 0 80 -240 0 -240 0 0 -80z"/>
<path d="M1840 1600 l0 -80 240 0 240 0 0 80 0 80 -240 0 -240 0 0 -80z"/>
<path d="M1840 1280 l0 -80 240 0 240 0 0 80 0 80 -240 0 -240 0 0 -80z"/>
</g>
</svg>
