<?xml version="1.0" standalone="no"?>
<!DOCTYPE svg PUBLIC "-//W3C//DTD SVG 20010904//EN"
 "http://www.w3.org/TR/2001/REC-SVG-20010904/DTD/svg10.dtd">
<svg version="1.0" xmlns="http://www.w3.org/2000/svg"
 width="512.000000pt" height="512.000000pt" viewBox="0 0 512.000000 512.000000"
 preserveAspectRatio="xMidYMid meet">

<g transform="translate(0.000000,512.000000) scale(0.100000,-0.100000)"
fill="#000000" stroke="none">
<path d="M2320 5102 c-71 -39 -89 -90 -90 -259 l0 -102 -269 -3 -269 -3 -39
-31 c-71 -57 -78 -79 -82 -256 l-3 -158 -167 0 c-153 0 -170 -2 -216 -24 -27
-12 -65 -38 -84 -57 -72 -73 -73 -74 -156 -789 -42 -360 -79 -658 -83 -661 -4
-3 -126 -54 -272 -114 -146 -59 -284 -118 -307 -131 -57 -33 -94 -97 -95 -162
0 -60 -23 -2 411 -1027 279 -661 335 -802 323 -809 -62 -36 -280 -49 -382 -22
-30 8 -93 31 -140 51 -158 68 -300 86 -340 43 -25 -28 -26 -72 -1 -97 19 -19
33 -23 130 -36 25 -3 97 -27 160 -52 157 -62 206 -73 343 -73 138 -1 212 14
343 70 127 54 177 63 314 58 92 -4 129 -10 181 -30 203 -79 234 -88 320 -96
174 -15 291 8 490 95 62 27 72 28 220 28 148 0 158 -1 220 -28 200 -88 314
-110 492 -95 84 8 116 17 318 96 52 20 89 26 181 30 137 5 187 -4 314 -58 131
-56 205 -71 343 -70 137 0 186 11 343 73 63 25 135 49 160 52 97 13 111 17
130 36 25 25 24 69 -1 97 -40 43 -182 25 -340 -43 -47 -20 -110 -43 -140 -51
-102 -27 -320 -14 -382 22 -12 7 44 148 323 809 434 1025 411 967 411 1027 -1
65 -38 129 -95 162 -23 13 -161 72 -307 131 -146 60 -268 111 -272 114 -4 3
-21 127 -38 275 -18 148 -36 280 -41 293 -19 51 -94 55 -125 7 -16 -24 -15
-39 10 -261 15 -129 25 -237 23 -239 -2 -3 -343 135 -757 306 -415 170 -761
310 -769 310 -9 0 -356 -140 -770 -310 -415 -171 -756 -308 -758 -306 -9 8
136 1207 149 1233 7 15 28 38 47 50 l34 23 1297 0 1297 0 34 -23 c19 -12 40
-35 47 -50 7 -15 24 -120 37 -233 14 -114 27 -215 31 -226 3 -11 22 -26 41
-34 31 -13 38 -13 59 0 45 30 46 41 19 278 -29 244 -43 294 -106 357 -19 19
-56 45 -84 57 -46 22 -63 24 -217 24 l-166 0 -4 158 c-3 177 -10 198 -81 256
l-39 31 -268 3 -267 3 -5 132 c-5 147 -16 180 -70 219 -32 22 -41 23 -248 26
-195 2 -218 1 -250 -16z m410 -247 l0 -115 -170 0 -170 0 0 115 0 115 170 0
170 0 0 -115z m660 -285 c6 -12 9 -71 8 -147 l-3 -128 -835 0 -835 0 -3 128
c-1 76 2 135 8 147 11 20 22 20 830 20 808 0 819 0 830 -20z m262 -1726 c596
-245 1093 -452 1106 -460 13 -8 22 -25 22 -39 0 -27 -49 -145 -60 -145 -4 0
-490 189 -1079 420 -589 231 -1076 420 -1081 420 -5 0 -360 -137 -787 -305
-522 -204 -784 -312 -795 -326 -25 -30 -22 -66 8 -96 18 -18 33 -24 52 -21 15
2 363 136 775 297 l747 294 773 -303 c1412 -554 1329 -520 1324 -541 -3 -10
-142 -343 -309 -739 -274 -651 -305 -720 -323 -715 -73 20 -146 27 -260 22
-139 -4 -172 -12 -337 -81 -99 -42 -196 -55 -324 -44 -63 5 -105 16 -192 52
-149 62 -214 76 -352 76 -138 0 -203 -14 -352 -76 -87 -36 -129 -47 -192 -52
-128 -11 -225 2 -324 44 -165 69 -198 77 -337 81 -114 5 -187 -2 -260 -22 -18
-5 -49 64 -323 715 -167 396 -306 729 -309 739 -4 15 18 27 139 76 79 31 151
64 161 72 40 37 6 123 -50 123 -12 0 -86 -25 -164 -55 -77 -30 -144 -55 -149
-55 -11 0 -60 117 -60 144 0 13 7 29 15 36 17 14 2183 909 2202 909 6 1 499
-199 1095 -445z"/>
<path d="M1381 3993 c-62 -31 -71 -59 -71 -226 0 -163 7 -189 60 -221 24 -14
67 -16 308 -16 268 0 280 1 306 21 49 39 56 66 56 221 0 162 -10 191 -73 221
-52 25 -535 25 -586 0z m509 -223 l0 -90 -215 0 -215 0 0 90 0 90 215 0 215 0
0 -90z"/>
<path d="M2259 3987 c-61 -40 -70 -73 -67 -232 3 -154 12 -181 69 -211 41 -21
557 -21 598 0 57 30 66 57 69 211 3 159 -6 192 -67 232 -33 22 -40 23 -301 23
-261 0 -268 -1 -301 -23z m519 -219 l3 -88 -221 0 -220 0 0 83 c0 46 3 87 7
91 4 3 102 5 217 4 l211 -3 3 -87z"/>
<path d="M3151 3993 c-62 -31 -71 -60 -71 -221 0 -155 7 -182 56 -221 26 -20
38 -21 306 -21 241 0 284 2 308 16 53 32 60 58 60 221 0 168 -9 196 -73 226
-52 25 -535 25 -586 0z m509 -223 l0 -90 -215 0 -215 0 0 90 0 90 215 0 215 0
0 -90z"/>
<path d="M67 270 c-20 -16 -27 -30 -27 -56 0 -50 26 -67 124 -81 56 -8 122
-28 198 -59 239 -98 422 -98 670 0 145 57 208 70 323 63 94 -5 150 -20 296
-81 174 -72 386 -72 572 0 200 77 203 78 337 78 134 0 137 -1 337 -78 186 -72
398 -72 572 0 146 61 202 76 296 81 115 7 178 -6 323 -63 248 -98 431 -98 670
0 76 31 142 51 198 59 98 14 124 31 124 81 0 26 -7 40 -27 56 -49 39 -165 17
-402 -75 -172 -67 -312 -60 -524 25 -145 58 -247 76 -385 67 -95 -7 -104 -9
-367 -104 -50 -18 -98 -27 -165 -30 -115 -6 -189 9 -326 68 -215 92 -433 92
-650 -1 -54 -23 -130 -49 -169 -57 -98 -21 -230 -13 -320 20 -266 95 -272 97
-367 104 -138 9 -240 -9 -385 -67 -212 -85 -352 -92 -524 -25 -156 60 -230 82
-304 90 -63 6 -73 4 -98 -15z"/>
</g>
</svg>
